<?xml version="1.0" encoding="UTF-8"?>
<!DOCTYPE svg PUBLIC "-//W3C//DTD SVG 1.1//EN" "http://www.w3.org/Graphics/SVG/1.1/DTD/svg11.dtd">
<!-- Creator: CorelDRAW X6 -->
<svg xmlns="http://www.w3.org/2000/svg" xml:space="preserve" width="150mm" height="42.1824mm" version="1.1" style="shape-rendering:geometricPrecision; text-rendering:geometricPrecision; image-rendering:optimizeQuality; fill-rule:evenodd; clip-rule:evenodd"
viewBox="0 0 8110 2281"
 xmlns:xlink="http://www.w3.org/1999/xlink">
 <defs>
  <style type="text/css">
   <![CDATA[
    .fil0 {fill:#ABABFF}
    .fil1 {fill:white}
    .fil2 {fill:white;fill-rule:nonzero}
   ]]>
  </style>
 </defs>
 <g id="Camada_x0020_1">
  <metadata id="CorelCorpID_0Corel-Layer"/>
  <rect class="fil0" y="44" width="8066" height="2237" rx="411" ry="352"/>
  <rect class="fil0" x="44" width="8066" height="2237" rx="411" ry="352"/>
  <g id="_673015952">
   <g>
    <path class="fil1" d="M749 650l0 964c0,37 19,53 44,66l131 -133c23,-23 43,-43 66,-66 12,-12 21,-20 34,-32l15 -16c1,-1 1,-2 2,-2l85 -82c23,-23 43,-43 66,-66l133 -135 -413 -415c-13,-13 -17,-22 -31,-35l-107 -105c-14,13 -26,30 -26,57z"/>
    <path class="fil1" d="M1348 1125l164 -162c-17,-5 -69,-37 -87,-48 -80,-48 -177,-96 -260,-145l-127 -71c-16,-9 -29,-16 -45,-25l-152 -85c-12,-6 -15,-5 -26,-10 5,19 115,122 131,138l132 136c46,46 90,88 134,134 36,37 97,112 135,138z"/>
    <path class="fil1" d="M858 1661l631 -342c-10,-15 -22,-22 -34,-37 -22,-27 -84,-94 -107,-109l-490 488zm-3 1l1 1c0,0 -1,-2 -1,-1z"/>
    <path class="fil1" d="M1374 1147c6,21 87,91 108,117 11,15 23,27 38,37 11,-6 21,-10 32,-16l96 -53c37,-23 106,-50 117,-81 17,-47 -46,-69 -92,-96l-96 -53c-12,-7 -19,-14 -35,-17 -21,14 -62,59 -83,80l-63 60c-11,9 -14,10 -22,22z"/>
   </g>
   <path class="fil2" d="M3043 1444c-45,23 -89,40 -132,51 -42,11 -84,17 -126,17 -42,0 -83,-6 -121,-17 -38,-11 -74,-28 -107,-49 -54,-35 -96,-81 -126,-137 -30,-56 -45,-117 -45,-183 0,-50 10,-98 30,-144 20,-47 48,-87 84,-122 38,-37 81,-65 129,-84 48,-19 100,-28 156,-28 41,0 83,6 126,17 43,11 87,29 132,52l0 61c-50,-26 -96,-46 -138,-59 -42,-13 -83,-19 -122,-19 -34,0 -67,5 -99,14 -31,9 -61,23 -89,41 -46,31 -81,70 -107,118 -25,48 -38,100 -38,156 0,43 8,85 24,126 16,41 39,77 69,107 30,31 65,55 106,71 41,17 85,25 133,25 31,0 63,-4 96,-12 33,-8 68,-20 105,-37l0 -199 -156 0 0 -52 214 0 0 285zm164 -188c0,57 19,105 57,144 38,39 84,59 138,59 53,0 99,-20 137,-59 38,-39 57,-88 57,-144 0,-57 -19,-105 -56,-145 -37,-40 -83,-59 -137,-59 -54,0 -100,20 -138,59 -38,39 -57,88 -57,145zm-59 -1c0,-71 25,-131 74,-180 49,-49 109,-74 180,-74 70,0 130,25 180,74 49,49 74,109 74,180 0,33 -7,66 -20,97 -13,32 -32,59 -56,83 -24,24 -51,42 -82,55 -30,12 -62,19 -96,19 -71,0 -131,-24 -180,-74 -49,-49 -74,-109 -74,-180zm631 1c0,57 19,105 57,144 38,39 84,59 138,59 53,0 99,-20 137,-59 38,-39 57,-88 57,-144 0,-57 -19,-105 -56,-145 -37,-40 -83,-59 -137,-59 -54,0 -100,20 -138,59 -38,39 -57,88 -57,145zm-59 -1c0,-71 25,-131 74,-180 49,-49 109,-74 180,-74 70,0 130,25 180,74 49,49 74,109 74,180 0,33 -7,66 -20,97 -13,32 -32,59 -56,83 -24,24 -51,42 -82,55 -30,12 -62,19 -96,19 -71,0 -131,-24 -180,-74 -49,-49 -74,-109 -74,-180zm766 268c-56,0 -97,8 -124,23 -27,15 -40,39 -40,71 0,27 14,48 42,62 28,15 67,22 118,22 56,0 98,-8 126,-23 29,-16 43,-39 43,-70 0,-29 -14,-50 -40,-64 -27,-14 -69,-21 -125,-21zm-132 -337c0,35 12,64 37,89 25,24 55,37 90,37 35,0 65,-12 89,-37 25,-24 37,-54 37,-89 0,-35 -12,-65 -37,-89 -24,-25 -54,-37 -89,-37 -35,0 -65,12 -90,37 -25,25 -37,55 -37,90zm67 161c-40,-15 -70,-37 -90,-64 -20,-27 -31,-60 -31,-97 0,-30 8,-58 23,-84 15,-25 37,-47 65,-64 14,-9 31,-15 50,-19 19,-4 48,-6 88,-6l182 0 0 46 -104 0c20,19 35,38 44,59 10,20 14,43 14,68 0,44 -13,79 -38,108 -25,28 -65,50 -119,65 -8,3 -20,6 -36,10 -56,14 -84,34 -84,60 0,24 39,40 116,47l6 1c76,7 128,21 156,40 28,19 42,50 42,91 0,47 -19,82 -55,106 -37,23 -93,35 -168,35 -68,0 -119,-11 -155,-33 -36,-22 -53,-54 -53,-96 0,-32 12,-58 35,-79 23,-21 55,-35 96,-40 -21,-5 -38,-13 -49,-25 -12,-12 -17,-26 -17,-43 0,-18 8,-35 23,-49 15,-14 36,-25 64,-33zm360 153l0 -738 55 0 0 738 -55 0zm589 -54c-32,22 -63,38 -93,49 -30,11 -61,16 -93,16 -73,0 -131,-24 -176,-72 -44,-48 -66,-111 -66,-191 0,-74 21,-133 62,-178 42,-45 97,-67 164,-67 63,0 114,21 153,64 39,42 58,99 58,169l0 2 -380 0 0 6c0,64 17,115 51,154 34,39 78,59 132,59 32,0 64,-6 93,-17 30,-12 61,-30 94,-54l0 60zm-364 -254l310 0c-6,-43 -22,-77 -50,-104 -28,-26 -61,-39 -101,-39 -41,0 -75,13 -105,40 -30,26 -48,61 -54,103zm809 -84l0 298c18,19 38,32 59,41 21,9 45,14 72,14 54,0 99,-19 133,-57 34,-38 51,-87 51,-147 0,-61 -17,-110 -51,-147 -34,-38 -79,-57 -133,-57 -27,0 -51,5 -72,14 -21,9 -41,23 -59,42zm-52 637l0 -733 52 0 0 35c20,-15 41,-26 64,-34 23,-7 47,-11 74,-11 71,0 129,23 173,70 44,47 66,108 66,183 0,75 -22,136 -66,183 -44,47 -101,70 -173,70 -27,0 -52,-4 -75,-11 -22,-7 -43,-18 -63,-33l0 280 -52 0zm530 -245l0 -738 55 0 0 738 -55 0zm437 -98l0 -153c-70,1 -126,14 -167,38 -41,24 -61,56 -61,96 0,25 8,45 25,59 17,14 40,22 70,22 20,0 41,-5 62,-15 21,-10 45,-26 71,-47zm1 51c-27,21 -52,36 -76,45 -23,9 -48,14 -74,14 -40,0 -73,-12 -97,-35 -25,-23 -37,-53 -37,-90 0,-54 24,-96 73,-127 49,-31 119,-48 210,-52l0 -52c0,-37 -9,-63 -26,-80 -17,-17 -45,-25 -83,-25 -24,0 -47,5 -71,14 -24,10 -50,25 -78,45l0 -53c27,-18 54,-32 79,-41 25,-9 50,-13 75,-13 56,0 96,13 121,39 25,26 37,68 37,126l0 256c0,11 1,18 4,24 3,5 7,8 13,8 8,0 23,-9 44,-27 5,-5 9,-8 11,-10l1 49c-16,15 -30,26 -44,33 -13,7 -25,11 -35,11 -15,0 -27,-5 -34,-14 -7,-9 -11,-23 -12,-44zm341 -48l-204 -392 61 0 173 332 162 -332 56 0 -359 733 -55 0 166 -340z"/>
  </g>
 </g>
</svg>
