<?xml version="1.0" encoding="UTF-8"?>
<!DOCTYPE svg PUBLIC "-//W3C//DTD SVG 1.1//EN" "http://www.w3.org/Graphics/SVG/1.1/DTD/svg11.dtd">
<!-- Creator: CorelDRAW X6 -->
<svg xmlns="http://www.w3.org/2000/svg" xml:space="preserve" width="200px" height="200px" version="1.1" style="shape-rendering:geometricPrecision; text-rendering:geometricPrecision; image-rendering:optimizeQuality; fill-rule:evenodd; clip-rule:evenodd"
viewBox="0 0 200 200"
 xmlns:xlink="http://www.w3.org/1999/xlink">
 <defs>
  <style type="text/css">
   <![CDATA[
    .str0 {stroke:black;stroke-width:0.031564}
    .fil1 {fill:none}
    .fil2 {fill:white}
    .fil0 {fill:url(#id0)}
   ]]>
  </style>
  <radialGradient id="id0" gradientUnits="objectBoundingBox" cx="50%" cy="50%" r="50%" fx="50%" fy="50%">
   <stop offset="0" style="stop-color:#020078"/>
   <stop offset="0.701961" style="stop-color:#01002E"/>
   <stop offset="1" style="stop-color:#00001C"/>
  </radialGradient>
 </defs>
 <g id="Camada_x0020_1">
  <metadata id="CorelCorpID_0Corel-Layer"/>
  <g id="_666014752">
   <circle class="fil0 str0" cx="100" cy="100" r="100"/>
   <g>
    <polygon class="fil1" points="54,54 146,54 146,146 54,146 "/>
    <path class="fil2" d="M123 85l-4 0 0 -8c0,-11 -9,-19 -19,-19 -11,0 -19,9 -19,19l0 8 -4 0c-4,0 -8,3 -8,8l0 39c0,4 3,8 8,8l46 0c4,0 8,-3 8,-8l0 -39c0,-4 -3,-8 -8,-8l0 0zm-23 35c-4,0 -8,-3 -8,-8 0,-4 3,-8 8,-8 4,0 8,3 8,8 0,4 -3,8 -8,8zm12 -35l-24 0 0 -8c0,-7 5,-12 12,-12 7,0 12,5 12,12l0 8z"/>
   </g>
  </g>
 </g>
</svg>
