<?xml version="1.0" encoding="UTF-8"?>
<!DOCTYPE svg PUBLIC "-//W3C//DTD SVG 1.1//EN" "http://www.w3.org/Graphics/SVG/1.1/DTD/svg11.dtd">
<!-- Creator: CorelDRAW X6 -->
<svg xmlns="http://www.w3.org/2000/svg" xml:space="preserve" width="150mm" height="41.5939mm" version="1.1" style="shape-rendering:geometricPrecision; text-rendering:geometricPrecision; image-rendering:optimizeQuality; fill-rule:evenodd; clip-rule:evenodd"
viewBox="0 0 11144 3090"
 xmlns:xlink="http://www.w3.org/1999/xlink">
 <defs>
  <style type="text/css">
   <![CDATA[
    .fil0 {fill:#FC7777}
    .fil1 {fill:white}
    .fil2 {fill:white;fill-rule:nonzero}
   ]]>
  </style>
 </defs>
 <g id="Camada_x0020_1">
  <metadata id="CorelCorpID_0Corel-Layer"/>
  <rect class="fil0" width="11144" height="3090" rx="568" ry="486"/>
  <g id="_677044544">
   <g>
    <path class="fil1" d="M2333 1088c-98,0 -192,-92 -359,-92 -189,0 -369,138 -439,275 -62,122 -86,218 -86,371 0,176 70,446 161,596 7,11 9,17 15,28l57 89c13,18 26,36 39,53l62 79c8,9 15,15 24,24 19,19 29,29 51,46 234,174 341,-128 656,-1 100,40 171,81 290,32 39,-16 55,-34 81,-55 91,-73 197,-257 247,-355 10,-20 50,-114 50,-134 0,-9 -45,-27 -54,-33 -130,-81 -227,-214 -227,-384 0,-116 16,-180 74,-271 40,-63 93,-110 154,-151 -124,-185 -368,-262 -584,-186 -55,19 -167,70 -212,70z"/>
    <path class="fil1" d="M2308 938c0,17 4,19 5,34 129,0 224,-50 305,-137 71,-77 127,-204 127,-314l0 -44c-74,0 -128,21 -188,55 -93,52 -167,129 -209,228 -22,52 -40,107 -40,178z"/>
   </g>
   <path class="fil2" d="M4216 1630l392 0 -195 -463 -196 463zm-265 424l445 -1028 33 0 445 1028 -86 0 -151 -355 -449 0 -150 355 -87 0z"/>
   <path id="1" class="fil2" d="M5003 1513l0 412c25,26 52,45 81,57 29,12 62,19 100,19 75,0 137,-26 184,-78 48,-52 71,-120 71,-204 0,-84 -24,-152 -71,-204 -47,-52 -109,-78 -184,-78 -38,0 -71,6 -100,19 -29,12 -56,32 -81,58zm-72 880l0 -1012 72 0 0 48c28,-21 57,-37 88,-47 31,-10 65,-15 102,-15 98,0 178,32 238,97 61,64 91,149 91,253 0,104 -30,188 -91,253 -61,64 -140,97 -238,97 -38,0 -72,-5 -103,-15 -31,-10 -60,-25 -87,-45l0 387 -72 0z"/>
   <path id="2" class="fil2" d="M5736 1513l0 412c25,26 52,45 81,57 29,12 62,19 100,19 75,0 137,-26 184,-78 48,-52 71,-120 71,-204 0,-84 -24,-152 -71,-204 -47,-52 -109,-78 -184,-78 -38,0 -71,6 -100,19 -29,12 -56,32 -81,58zm-72 880l0 -1012 72 0 0 48c28,-21 57,-37 88,-47 31,-10 65,-15 102,-15 98,0 178,32 238,97 61,64 91,149 91,253 0,104 -30,188 -91,253 -61,64 -140,97 -238,97 -38,0 -72,-5 -103,-15 -31,-10 -60,-25 -87,-45l0 387 -72 0z"/>
   <path id="3" class="fil2" d="M7277 1180c-42,-29 -82,-50 -121,-63 -38,-14 -76,-20 -113,-20 -62,0 -112,18 -152,54 -39,36 -59,82 -59,137 0,45 13,81 38,109 25,28 80,60 163,95 5,2 12,5 22,9 95,38 157,75 189,111 22,24 39,51 50,82 11,31 17,63 17,98 0,81 -28,148 -85,200 -56,52 -129,78 -217,78 -44,0 -88,-7 -132,-23 -44,-15 -87,-38 -132,-68l0 -99c48,37 94,65 137,83 43,18 85,27 125,27 66,0 119,-18 158,-55 39,-36 58,-86 58,-149 0,-46 -13,-84 -40,-113 -26,-29 -87,-64 -181,-103 -98,-40 -164,-81 -200,-122 -36,-41 -54,-94 -54,-157 0,-79 27,-144 82,-194 55,-50 126,-75 214,-75 40,0 79,5 117,16 38,11 76,28 114,51l0 91z"/>
   <path id="4" class="fil2" d="M7557 1889c0,45 6,75 19,90 12,15 34,22 66,22 16,0 34,-3 52,-8 18,-5 38,-14 60,-26l0 74c-21,9 -41,16 -61,21 -20,5 -41,7 -61,7 -56,0 -95,-13 -118,-40 -23,-27 -34,-73 -34,-140l0 -444 -144 0 0 -63 147 0 0 -154 57 -66 18 0 0 219 180 0 0 63 -180 0 0 445z"/>
   <path id="5" class="fil2" d="M7882 1718c0,78 26,145 79,199 52,54 116,82 190,82 74,0 137,-27 189,-82 52,-54 78,-121 78,-199 0,-79 -26,-146 -78,-200 -52,-55 -115,-82 -189,-82 -75,0 -139,27 -191,82 -52,54 -78,121 -78,200zm-82 -1c0,-98 34,-181 102,-249 68,-68 151,-102 249,-102 97,0 180,34 248,103 68,68 102,151 102,248 0,46 -9,91 -27,135 -18,44 -44,82 -77,115 -33,33 -71,59 -113,76 -42,17 -86,26 -133,26 -98,0 -181,-34 -249,-102 -68,-68 -102,-151 -102,-249z"/>
   <path id="6" class="fil2" d="M8644 2054l0 -673 75 0 0 166c42,-64 80,-110 114,-137 35,-27 70,-41 108,-41 20,0 40,4 59,12 19,8 39,21 60,39l-41 71c-20,-16 -39,-29 -56,-36 -17,-8 -33,-12 -49,-12 -30,0 -61,15 -92,44 -31,29 -66,76 -105,141l0 425 -75 0z"/>
   <path id="7" class="fil2" d="M9682 1980c-44,30 -87,53 -128,67 -42,15 -85,22 -129,22 -101,0 -182,-33 -243,-99 -61,-66 -92,-154 -92,-263 0,-102 29,-184 86,-246 58,-62 133,-93 227,-93 87,0 157,29 211,88 53,59 80,137 80,234l0 3 -525 0 0 8c0,88 24,159 71,213 47,54 108,82 183,82 45,0 88,-8 129,-24 41,-16 85,-41 130,-75l0 82zm-503 -351l428 0c-8,-59 -31,-107 -69,-143 -39,-36 -85,-54 -139,-54 -56,0 -104,18 -145,55 -41,37 -66,84 -74,142z"/>
  </g>
 </g>
</svg>
