<?xml version="1.0" encoding="UTF-8"?>
<!DOCTYPE svg PUBLIC "-//W3C//DTD SVG 1.1//EN" "http://www.w3.org/Graphics/SVG/1.1/DTD/svg11.dtd">
<!-- Creator: CorelDRAW X6 -->
<svg xmlns="http://www.w3.org/2000/svg" xml:space="preserve" width="150mm" height="41.5939mm" version="1.1" style="shape-rendering:geometricPrecision; text-rendering:geometricPrecision; image-rendering:optimizeQuality; fill-rule:evenodd; clip-rule:evenodd"
viewBox="0 0 13439 3727"
 xmlns:xlink="http://www.w3.org/1999/xlink">
 <defs>
  <style type="text/css">
   <![CDATA[
    .fil0 {fill:#ACFC94}
    .fil1 {fill:white}
    .fil2 {fill:white;fill-rule:nonzero}
   ]]>
  </style>
 </defs>
 <g id="Camada_x0020_1">
  <metadata id="CorelCorpID_0Corel-Layer"/>
  <rect class="fil0" width="13439" height="3727" rx="686" ry="586"/>
  <g id="_673014416">
   <g>
    <path class="fil1" d="M1223 1192l-1 656 883 1 1 -780 -221 31c-73,12 -148,20 -220,30 -75,10 -145,22 -221,30 -36,4 -75,10 -111,16 -35,6 -79,8 -110,16z"/>
    <path class="fil1" d="M2002 2648c10,1 21,5 33,5 12,-6 6,-2 10,-3 9,-1 42,8 60,7 4,-20 1,-75 1,-98 0,-105 4,-665 -3,-678 -24,-5 -875,-1 -881,0l1 652c11,6 167,25 194,29 64,9 131,20 197,27 65,7 129,20 195,27 32,4 64,9 99,14 20,3 83,8 94,17z"/>
    <path class="fil1" d="M1087 1205l-3 0c-4,10 2,3 -9,6l-561 80 1 557 673 -1 0 -651c-30,1 -95,18 -102,9z"/>
    <path class="fil1" d="M516 2436l338 49c47,5 318,48 335,44l0 -645c-16,-10 -596,1 -673,-2l1 554z"/>
    <path class="fil1" d="M2002 2648c-11,-9 -74,-14 -94,-17 -34,-5 -66,-10 -99,-14 -66,-8 -130,-20 -195,-27 -65,-7 -133,-18 -197,-27 -27,-4 -183,-23 -194,-29l-1 -652c6,-2 857,-5 881,0 6,12 3,572 3,678 0,23 3,78 -1,98 -18,1 -51,-8 -60,-7 -4,0 2,-3 -10,3 12,1 22,4 37,6 12,2 28,4 39,4 0,-15 3,-779 -1,-785 -5,-8 -38,-4 -50,-4 -281,0 -561,0 -842,0 0,5 -3,662 0,665 4,2 41,7 48,8 13,1 13,1 25,3l123 17c32,7 95,12 123,17l466 65z"/>
    <path class="fil1" d="M515 1881c77,3 657,-8 673,2l0 645c-18,4 -289,-39 -335,-44l-338 -49 -1 -554zm678 653c1,-8 3,-9 3,-18l0 -626c0,-8 -2,-15 -10,-15l-667 0c-13,0 -10,17 -10,30 1,169 -2,342 0,510 0,3 0,6 0,10l0 4c1,13 1,10 11,13l298 42c23,5 50,8 76,10l300 40z"/>
    <path class="fil1" d="M1223 1192c31,-8 75,-10 110,-16 37,-6 75,-12 111,-16 76,-8 146,-20 221,-30 72,-10 147,-18 220,-30l221 -31 -1 780 -883 -1 1 -656zm-4 -4l0 665 885 0c6,0 8,-2 8,-8l0 -781 -335 46c-21,2 -34,6 -56,8 -9,1 -20,4 -29,4 -40,4 -51,8 -84,12 -11,2 -19,1 -28,2l-276 39c-10,1 -21,3 -29,4l-58 8z"/>
    <path class="fil1" d="M1087 1205c8,9 72,-8 102,-9l0 651 -673 1 -1 -557 561 -80c11,-4 5,3 9,-6 -23,4 -48,7 -72,11 -25,4 -48,5 -72,9l-142 20c-38,3 -142,22 -178,25l-71 10c-16,2 -24,2 -38,5 -6,26 -3,195 -3,236l0 299c0,36 -5,31 30,30l599 0c67,0 58,14 58,-61l0 -571c0,-14 -2,-18 -3,-28l-78 9c-11,2 -18,4 -29,4z"/>
   </g>
   <polygon class="fil2" points="2880,2261 3238,1256 3273,1256 3642,2261 3997,1256 4102,1256 3649,2487 3629,2487 3257,1470 2889,2487 2870,2487 2407,1256 2513,1256 "/>
   <path id="1" class="fil2" d="M4157 1403l0 -147 90 0 0 147 -90 0zm0 1062l0 -799 90 0 0 799 -90 0z"/>
   <path id="2" class="fil2" d="M4466 2465l0 -799 89 0 0 128c39,-48 81,-84 127,-107 46,-23 96,-35 150,-35 90,0 160,28 209,85 49,57 73,137 73,241l0 487 -89 0 0 -444c0,-96 -17,-168 -50,-215 -34,-48 -85,-71 -153,-71 -55,0 -105,14 -150,42 -45,28 -84,70 -118,126l0 563 -89 0z"/>
   <path id="3" class="fil2" d="M5884 2310l0 -491c-30,-31 -61,-53 -96,-68 -35,-15 -74,-22 -119,-22 -89,0 -161,31 -217,93 -56,62 -84,142 -84,242 0,100 28,180 84,242 56,62 128,93 217,93 46,0 86,-7 120,-21 34,-14 66,-36 95,-67zm0 97c-32,25 -67,43 -104,55 -37,12 -77,18 -121,18 -117,0 -211,-38 -283,-115 -72,-76 -109,-176 -109,-300 0,-123 36,-223 109,-300 72,-76 166,-115 283,-115 44,0 84,6 121,18 37,12 71,30 104,55l0 -468 87 0 0 1209 -87 0 0 -59z"/>
   <path id="4" class="fil2" d="M6237 2067c0,93 31,171 94,236 62,65 137,97 225,97 88,0 162,-32 224,-97 62,-65 93,-143 93,-236 0,-94 -31,-173 -92,-237 -61,-65 -136,-97 -225,-97 -89,0 -165,32 -226,97 -62,65 -93,144 -93,237zm-97 -2c0,-116 40,-214 121,-295 81,-81 179,-121 296,-121 115,0 213,40 294,122 81,81 121,179 121,295 0,55 -11,108 -32,160 -22,52 -52,97 -91,136 -40,40 -84,70 -134,90 -50,20 -102,30 -158,30 -117,0 -215,-40 -296,-121 -81,-81 -121,-179 -121,-295z"/>
   <polygon id="5" class="fil2" points="7352,2481 7014,1667 7107,1667 7371,2322 7626,1667 7676,1667 7913,2322 8194,1667 8290,1667 7933,2481 7883,2481 7650,1832 7400,2481 "/>
   <path id="6" class="fil2" d="M8350 2320c40,27 80,47 119,60 39,13 79,19 120,19 51,0 91,-12 121,-36 29,-24 44,-57 44,-99 0,-62 -53,-112 -161,-151 -28,-10 -49,-18 -65,-24 -59,-23 -103,-53 -132,-89 -30,-37 -44,-80 -44,-130 0,-65 24,-117 71,-158 47,-41 108,-61 183,-61 34,0 69,6 105,17 36,11 73,28 112,51l0 92c-40,-26 -79,-45 -116,-58 -37,-13 -73,-19 -107,-19 -47,0 -86,13 -117,38 -30,26 -46,58 -46,98 0,35 14,65 42,89 28,24 80,49 156,76 81,28 136,59 166,92 30,33 45,77 45,131 0,71 -24,127 -71,167 -47,41 -112,61 -194,61 -42,0 -81,-6 -119,-17 -38,-12 -75,-29 -113,-53l0 -93z"/>
   <path id="7" class="fil2" d="M10063 1428c-50,-34 -98,-59 -143,-75 -45,-16 -90,-24 -134,-24 -73,0 -133,22 -180,64 -47,43 -70,97 -70,162 0,53 15,96 45,130 30,33 94,71 194,113 6,2 14,6 26,11 112,45 187,89 224,131 26,28 46,61 59,97 14,37 20,75 20,116 0,97 -34,176 -101,238 -67,62 -153,93 -257,93 -53,0 -104,-9 -156,-27 -52,-18 -104,-45 -156,-81l0 -117c57,44 111,77 162,99 51,22 101,32 148,32 79,0 141,-22 188,-65 46,-43 69,-102 69,-176 0,-55 -16,-100 -47,-135 -31,-35 -103,-76 -215,-122 -116,-48 -195,-96 -238,-145 -42,-49 -64,-111 -64,-187 0,-94 32,-171 97,-231 65,-60 150,-89 254,-89 47,0 93,6 138,19 45,13 90,33 135,61l0 108z"/>
   <path id="8" class="fil2" d="M10396 2269c0,53 7,89 22,106 14,17 41,26 79,26 19,0 40,-3 61,-10 22,-6 45,-17 72,-31l0 87c-25,11 -49,19 -73,25 -24,6 -48,8 -72,8 -66,0 -113,-16 -140,-48 -27,-32 -41,-87 -41,-166l0 -527 -170 0 0 -74 174 0 0 -182 68 -78 21 0 0 260 214 0 0 74 -214 0 0 528z"/>
   <path id="9" class="fil2" d="M10781 2067c0,93 31,171 94,236 62,65 137,97 225,97 88,0 162,-32 224,-97 62,-65 93,-143 93,-236 0,-94 -31,-173 -92,-237 -61,-65 -136,-97 -225,-97 -89,0 -165,32 -226,97 -62,65 -93,144 -93,237zm-97 -2c0,-116 40,-214 121,-295 81,-81 179,-121 296,-121 115,0 213,40 294,122 81,81 121,179 121,295 0,55 -11,108 -32,160 -22,52 -52,97 -91,136 -40,40 -84,70 -134,90 -50,20 -102,30 -158,30 -117,0 -215,-40 -296,-121 -81,-81 -121,-179 -121,-295z"/>
   <path id="10" class="fil2" d="M11685 2465l0 -799 89 0 0 197c50,-76 95,-130 136,-163 41,-32 84,-48 128,-48 24,0 48,5 70,15 23,10 47,25 71,46l-48 85c-24,-19 -46,-34 -66,-43 -20,-9 -39,-14 -58,-14 -36,0 -72,17 -109,52 -37,35 -79,90 -125,168l0 505 -89 0z"/>
   <path id="11" class="fil2" d="M12916 2377c-52,36 -103,63 -152,80 -50,17 -101,26 -153,26 -120,0 -215,-39 -288,-118 -72,-78 -109,-182 -109,-312 0,-121 34,-218 102,-292 68,-73 158,-110 269,-110 103,0 187,35 250,105 63,70 95,162 95,278l0 4 -623 0 0 9c0,104 28,189 84,253 56,65 128,97 217,97 53,0 104,-9 153,-28 49,-19 100,-48 154,-89l0 98zm-596 -416l508 0c-9,-71 -37,-127 -82,-170 -46,-43 -101,-64 -165,-64 -66,0 -124,22 -172,65 -48,43 -78,99 -88,169z"/>
  </g>
 </g>
</svg>
