<?xml version="1.0" encoding="UTF-8"?>
<!DOCTYPE svg PUBLIC "-//W3C//DTD SVG 1.1//EN" "http://www.w3.org/Graphics/SVG/1.1/DTD/svg11.dtd">
<!-- Creator: CorelDRAW X6 -->
<svg xmlns="http://www.w3.org/2000/svg" xml:space="preserve" width="1600px" height="478px" version="1.1" style="shape-rendering:geometricPrecision; text-rendering:geometricPrecision; image-rendering:optimizeQuality; fill-rule:evenodd; clip-rule:evenodd"
viewBox="0 0 1479 442"
 xmlns:xlink="http://www.w3.org/1999/xlink">
 <defs>
  <style type="text/css">
   <![CDATA[
    .str0 {stroke:white;stroke-width:5.48748}
    .fil1 {fill:none}
    .fil2 {fill:#0C0CC9}
    .fil3 {fill:red}
    .fil0 {fill:white;fill-rule:nonzero}
   ]]>
  </style>
 </defs>
 <g id="Camada_x0020_1">
  <metadata id="CorelCorpID_0Corel-Layer"/>
  <path class="fil0" d="M724 233c-17,9 -36,14 -58,14 -24,0 -44,-8 -59,-23 -15,-15 -23,-35 -23,-60 0,-26 8,-47 25,-63 17,-16 38,-25 63,-25 18,0 34,3 46,8l0 28c-13,-8 -28,-13 -45,-13 -18,0 -32,6 -43,17 -11,12 -17,27 -17,45 0,19 5,34 15,45 10,11 23,16 39,16 11,0 21,-2 30,-7l0 -39 -35 0 0 -23 62 0 0 78z"/>
  <polygon id="1" class="fil0" points="869,102 821,102 821,244 794,244 794,102 746,102 746,79 869,79 "/>
  <path id="2" class="fil0" d="M1029 244l-32 0 -26 -44c-2,-4 -5,-8 -7,-10 -2,-3 -5,-5 -7,-7 -2,-2 -5,-3 -8,-4 -3,-1 -6,-1 -9,-1l-11 0 0 67 -27 0 0 -165 54 0c8,0 15,1 21,3 7,2 12,5 17,8 5,4 9,8 11,14 3,6 4,12 4,20 0,6 -1,11 -3,16 -2,5 -4,9 -7,13 -3,4 -7,7 -12,10 -4,3 -10,5 -15,6l0 0c3,2 6,4 8,6 2,2 4,4 6,6 2,2 4,5 6,7 2,3 4,6 7,9l29 46zm-100 -143l0 54 23 0c4,0 8,-1 12,-2 4,-1 7,-3 9,-6 3,-2 5,-5 6,-9 1,-4 2,-8 2,-12 0,-8 -2,-14 -7,-19 -5,-4 -12,-7 -22,-7l-23 0z"/>
  <polygon id="3" class="fil0" points="1149,244 1056,244 1056,79 1145,79 1145,102 1084,102 1084,149 1141,149 1141,172 1084,172 1084,221 1149,221 "/>
  <polygon id="4" class="fil0" points="1215,244 1187,244 1187,79 1215,79 "/>
  <path id="5" class="fil0" d="M1264 244l0 -165 48 0c61,0 91,27 91,81 0,25 -8,46 -25,62 -17,15 -40,23 -68,23l-46 0zm27 -142l0 119 22 0c19,0 34,-5 45,-16 11,-11 16,-26 16,-45 0,-39 -20,-58 -60,-58l-23 0z"/>
  <polygon class="fil0" points="753,392 709,392 709,314 723,314 723,381 753,381 "/>
  <path id="1" class="fil0" d="M797 394c-11,0 -20,-4 -27,-11 -7,-7 -10,-17 -10,-29 0,-13 3,-23 10,-30 7,-8 16,-11 28,-11 11,0 20,4 27,11 7,7 10,17 10,29 0,13 -3,23 -10,30 -7,7 -16,11 -28,11zm1 -70c-7,0 -13,3 -18,8 -5,5 -7,12 -7,21 0,9 2,16 7,21 4,5 10,8 17,8 8,0 13,-3 18,-8 4,-5 7,-12 7,-21 0,-9 -2,-17 -6,-22 -4,-5 -10,-8 -17,-8z"/>
  <path id="2" class="fil0" d="M915 387c-8,4 -17,7 -27,7 -12,0 -21,-4 -28,-11 -7,-7 -11,-17 -11,-29 0,-12 4,-22 12,-30 8,-8 18,-12 30,-12 9,0 16,1 22,4l0 13c-6,-4 -13,-6 -22,-6 -8,0 -15,3 -21,8 -5,6 -8,13 -8,21 0,9 2,16 7,21 5,5 11,8 19,8 5,0 10,-1 14,-3l0 -19 -17 0 0 -11 30 0 0 37z"/>
  <path id="3" class="fil0" d="M949 392l-13 0 0 -79 13 0 0 79zm9 -104l-16 18 -9 0 13 -18 12 0z"/>
  <path id="4" class="fil0" d="M969 389l0 -13c1,1 3,2 4,3 2,1 3,2 5,2 2,1 4,1 6,1 2,0 4,0 5,0 5,0 10,-1 12,-3 3,-2 4,-4 4,-8 0,-2 0,-3 -1,-5 -1,-1 -2,-3 -4,-4 -2,-1 -3,-2 -6,-3 -2,-1 -5,-2 -7,-3 -3,-1 -5,-3 -7,-4 -2,-1 -4,-3 -6,-5 -2,-2 -3,-4 -4,-6 -1,-2 -1,-5 -1,-8 0,-4 1,-7 3,-10 2,-3 4,-5 7,-7 3,-2 6,-3 9,-4 3,-1 7,-1 11,-1 8,0 14,1 18,3l0 13c-4,-3 -10,-5 -17,-5 -2,0 -4,0 -6,1 -2,0 -4,1 -5,2 -2,1 -3,2 -4,3 -1,1 -1,3 -1,5 0,2 0,3 1,5 1,1 2,2 3,4 1,1 3,2 5,3 2,1 4,2 7,3 3,1 5,3 8,4 2,2 5,3 6,5 2,2 3,4 4,6 1,2 2,5 2,8 0,4 -1,7 -2,10 -2,3 -4,5 -6,7 -3,2 -6,3 -9,4 -4,1 -7,1 -11,1 -1,0 -3,0 -5,0 -2,0 -4,0 -6,-1 -2,0 -4,-1 -6,-1 -2,-1 -3,-1 -4,-2z"/>
  <polygon id="5" class="fil0" points="1088,325 1065,325 1065,392 1052,392 1052,325 1030,325 1030,314 1088,314 "/>
  <polygon id="6" class="fil0" points="1116,392 1103,392 1103,314 1116,314 "/>
  <path id="7" class="fil0" d="M1194 389c-6,3 -13,5 -22,5 -11,0 -21,-4 -27,-11 -7,-7 -10,-17 -10,-28 0,-13 4,-23 12,-30 8,-8 17,-12 29,-12 8,0 14,1 19,3l0 13c-5,-3 -11,-5 -18,-5 -9,0 -15,3 -21,8 -5,5 -8,13 -8,22 0,9 2,16 7,21 5,5 11,8 19,8 7,0 14,-2 19,-5l0 12z"/>
  <path id="8" class="fil0" d="M1278 392l-14 0 -7 -20 -31 0 -7 20 -14 0 29 -79 15 0 29 79zm-25 -31l-11 -31c0,-1 -1,-3 -1,-5l0 0c0,2 -1,4 -1,5l-11 31 24 0z"/>
  <rect class="fil1 str0" x="3" y="3" width="1474" height="436" rx="64" ry="57"/>
  <g id="_675988784">
   <g>
    <path class="fil2" d="M207 218c0,-16 -25,-18 -26,0 -1,37 17,74 53,94 77,42 169,-13 164,-96 -5,-70 -54,-103 -110,-103 -17,2 -18,24 0,26 36,-1 82,26 83,77 2,111 -161,118 -164,3z"/>
    <path class="fil2" d="M286 287c37,1 72,-28 71,-68 3,-5 6,-5 9,0 -1,27 -9,52 -41,69 -23,12 -48,12 -71,0 -32,-18 -40,-44 -42,-69 1,-45 37,-75 77,-76 6,3 5,6 0,10 -45,4 -65,29 -68,67 0,37 28,66 65,68z"/>
    <path class="fil2" d="M288 170c32,0 48,24 50,51 1,6 15,5 14,0 -7,-91 -129,-84 -127,3 6,35 28,57 64,58 8,0 9,-16 0,-15 -63,3 -67,-97 -1,-97z"/>
    <path class="fil2" d="M244 220c-1,11 19,16 22,0 2,-12 7,-22 22,-23 11,0 22,6 23,24 -2,14 -11,20 -25,21 -12,1 -11,22 0,23 19,2 45,-12 48,-44 2,-61 -91,-67 -90,-1z"/>
    <circle class="fil2" cx="289" cy="219" r="17"/>
   </g>
   <path class="fil3" d="M39 166c17,166 224,201 359,143 34,-59 32,-147 -55,-191 -30,-15 -75,-19 -111,-1 -59,30 -72,112 -42,181 -90,-2 -135,-131 -22,-226 84,-65 178,-49 229,0 78,72 72,159 29,223 50,-29 86,-73 89,-130 -4,295 -450,359 -475,1z"/>
  </g>
 </g>
</svg>
