<?xml version="1.0" encoding="UTF-8"?>
<!DOCTYPE svg PUBLIC "-//W3C//DTD SVG 1.1//EN" "http://www.w3.org/Graphics/SVG/1.1/DTD/svg11.dtd">
<!-- Creator: CorelDRAW X6 -->
<svg xmlns="http://www.w3.org/2000/svg" xml:space="preserve" width="1601px" height="448px" version="1.1" style="shape-rendering:geometricPrecision; text-rendering:geometricPrecision; image-rendering:optimizeQuality; fill-rule:evenodd; clip-rule:evenodd"
viewBox="0 0 1435 402"
 xmlns:xlink="http://www.w3.org/1999/xlink">
 <defs>
  <style type="text/css">
   <![CDATA[
    .fil1 {fill:#0C0CC9}
    .fil2 {fill:red}
    .fil0 {fill:white;fill-rule:nonzero}
   ]]>
  </style>
 </defs>
 <g id="Camada_x0020_1">
  <metadata id="CorelCorpID_0Corel-Layer"/>
  <path class="fil0" d="M720 215c-18,10 -38,15 -60,15 -26,0 -47,-8 -62,-24 -16,-16 -24,-37 -24,-64 0,-27 9,-49 26,-66 17,-17 40,-26 66,-26 19,0 36,3 49,9l0 30c-13,-9 -29,-13 -48,-13 -19,0 -34,6 -46,18 -12,12 -18,28 -18,47 0,20 5,36 15,47 10,11 24,17 41,17 12,0 22,-2 31,-7l0 -41 -37 0 0 -24 65 0 0 83z"/>
  <polygon id="1" class="fil0" points="873,77 823,77 823,226 794,226 794,77 744,77 744,53 873,53 "/>
  <path id="2" class="fil0" d="M1041 226l-34 0 -28 -47c-2,-4 -5,-8 -7,-11 -2,-3 -5,-6 -7,-7 -2,-2 -5,-3 -8,-4 -3,-1 -6,-1 -10,-1l-12 0 0 71 -29 0 0 -174 57 0c8,0 16,1 23,3 7,2 13,5 18,9 5,4 9,9 12,15 3,6 4,13 4,21 0,6 -1,12 -3,17 -2,5 -4,10 -8,14 -3,4 -7,7 -12,10 -5,3 -10,5 -16,7l0 0c3,2 6,4 8,6 2,2 5,4 7,7 2,2 4,5 6,8 2,3 4,6 7,10l31 49zm-106 -150l0 56 24 0c4,0 9,-1 12,-2 4,-1 7,-3 10,-6 3,-3 5,-6 6,-9 2,-4 2,-8 2,-12 0,-8 -3,-15 -8,-20 -5,-5 -13,-7 -23,-7l-24 0z"/>
  <polygon id="3" class="fil0" points="1168,226 1070,226 1070,53 1164,53 1164,77 1099,77 1099,126 1159,126 1159,151 1099,151 1099,202 1168,202 "/>
  <polygon id="4" class="fil0" points="1237,226 1207,226 1207,53 1237,53 "/>
  <path id="5" class="fil0" d="M1288 226l0 -174 50 0c64,0 96,28 96,85 0,27 -9,48 -27,65 -18,16 -42,24 -72,24l-48 0zm29 -149l0 125 23 0c20,0 36,-6 47,-17 11,-11 17,-27 17,-47 0,-41 -21,-61 -63,-61l-24 0z"/>
  <polygon class="fil0" points="751,382 705,382 705,300 719,300 719,371 751,371 "/>
  <path id="1" class="fil0" d="M798 384c-12,0 -21,-4 -29,-12 -7,-8 -11,-18 -11,-30 0,-13 4,-24 11,-32 7,-8 17,-12 30,-12 12,0 21,4 28,12 7,8 11,18 11,30 0,13 -4,24 -11,32 -7,8 -17,12 -29,12zm1 -73c-8,0 -14,3 -18,8 -5,6 -7,13 -7,22 0,9 2,17 7,22 5,6 11,8 18,8 8,0 14,-3 19,-8 5,-5 7,-13 7,-22 0,-10 -2,-17 -7,-23 -4,-5 -11,-8 -18,-8z"/>
  <path id="2" class="fil0" d="M921 377c-9,5 -18,7 -29,7 -12,0 -22,-4 -30,-11 -8,-8 -11,-18 -11,-30 0,-13 4,-23 12,-31 8,-8 19,-12 32,-12 9,0 17,1 23,4l0 14c-6,-4 -14,-6 -23,-6 -9,0 -16,3 -22,9 -6,6 -8,13 -8,23 0,9 2,17 7,22 5,5 11,8 20,8 6,0 11,-1 15,-3l0 -20 -17 0 0 -12 31 0 0 39z"/>
  <path id="3" class="fil0" d="M957 382l-14 0 0 -83 14 0 0 83zm9 -110l-16 19 -10 0 14 -19 12 0z"/>
  <path id="4" class="fil0" d="M978 379l0 -14c1,1 3,2 5,3 2,1 4,2 6,2 2,1 4,1 6,1 2,0 4,1 5,1 6,0 10,-1 13,-3 3,-2 4,-5 4,-8 0,-2 0,-4 -1,-5 -1,-1 -2,-3 -4,-4 -2,-1 -4,-2 -6,-3 -2,-1 -5,-2 -7,-3 -3,-1 -5,-3 -8,-5 -2,-2 -5,-3 -6,-5 -2,-2 -3,-4 -4,-6 -1,-2 -2,-5 -2,-8 0,-4 1,-7 3,-10 2,-3 4,-5 7,-7 3,-2 6,-3 10,-4 4,-1 7,-1 11,-1 9,0 15,1 19,3l0 14c-5,-3 -11,-5 -18,-5 -2,0 -4,0 -6,1 -2,0 -4,1 -5,2 -2,1 -3,2 -4,3 -1,1 -1,3 -1,5 0,2 0,3 1,5 1,1 2,3 3,4 1,1 3,2 5,3 2,1 5,2 7,3 3,1 6,3 8,5 3,2 5,3 7,5 2,2 3,4 5,7 1,2 2,5 2,8 0,4 -1,8 -3,11 -2,3 -4,5 -7,7 -3,2 -6,3 -10,4 -4,1 -8,1 -12,1 -1,0 -3,0 -5,0 -2,0 -4,-1 -6,-1 -2,0 -4,-1 -6,-1 -2,-1 -3,-1 -5,-2z"/>
  <polygon id="5" class="fil0" points="1103,311 1079,311 1079,382 1066,382 1066,311 1042,311 1042,300 1103,300 "/>
  <polygon id="6" class="fil0" points="1133,382 1119,382 1119,300 1133,300 "/>
  <path id="7" class="fil0" d="M1215 379c-6,3 -14,5 -23,5 -12,0 -22,-4 -29,-11 -7,-8 -11,-17 -11,-30 0,-13 4,-24 12,-32 8,-8 18,-12 31,-12 8,0 15,1 20,3l0 14c-6,-3 -12,-5 -18,-5 -9,0 -16,3 -22,9 -6,6 -8,13 -8,23 0,9 3,16 8,22 5,5 12,8 20,8 8,0 15,-2 20,-6l0 13z"/>
  <path id="8" class="fil0" d="M1303 382l-15 0 -7 -21 -32 0 -7 21 -15 0 31 -83 15 0 31 83zm-26 -32l-11 -33c0,-1 -1,-3 -1,-5l0 0c0,2 -1,4 -1,5l-11 33 25 0z"/>
  <g id="_676043696">
   <g>
    <path class="fil1" d="M176 198c0,-16 -26,-19 -27,0 -1,39 18,78 56,99 81,44 178,-14 172,-101 -5,-74 -57,-108 -116,-109 -17,2 -18,25 0,27 38,-1 86,28 87,81 2,117 -169,124 -173,3z"/>
    <path class="fil1" d="M260 271c39,1 76,-29 74,-72 3,-5 6,-5 9,0 -1,28 -10,55 -43,72 -24,13 -50,12 -75,0 -33,-18 -42,-46 -44,-73 2,-47 39,-79 81,-80 6,3 5,6 0,10 -47,4 -68,30 -71,71 0,39 29,70 68,72z"/>
    <path class="fil1" d="M262 149c33,0 50,26 53,54 1,6 15,5 15,0 -7,-96 -136,-89 -133,3 6,37 29,60 67,61 9,0 9,-17 0,-16 -66,3 -70,-102 -1,-102z"/>
    <path class="fil1" d="M216 201c-1,12 20,17 23,0 2,-13 7,-23 23,-24 12,0 23,6 24,25 -2,15 -12,21 -26,22 -13,1 -11,23 0,24 20,2 48,-13 50,-46 2,-64 -95,-70 -95,-1z"/>
    <circle class="fil1" cx="263" cy="200" r="18"/>
   </g>
   <path class="fil2" d="M0 144c18,175 235,211 377,150 36,-62 33,-155 -58,-200 -31,-16 -79,-21 -117,-1 -62,32 -76,118 -44,190 -95,-2 -142,-137 -23,-238 88,-69 187,-51 241,0 82,76 76,167 31,234 53,-31 90,-77 93,-137 -4,310 -473,378 -500,1z"/>
  </g>
 </g>
</svg>
