<?xml version="1.0" encoding="UTF-8"?>
<!DOCTYPE svg PUBLIC "-//W3C//DTD SVG 1.1//EN" "http://www.w3.org/Graphics/SVG/1.1/DTD/svg11.dtd">
<!-- Creator: CorelDRAW X6 -->
<svg xmlns="http://www.w3.org/2000/svg" xml:space="preserve" width="1000px" height="629px" version="1.1" style="shape-rendering:geometricPrecision; text-rendering:geometricPrecision; image-rendering:optimizeQuality; fill-rule:evenodd; clip-rule:evenodd"
viewBox="0 0 920 579"
 xmlns:xlink="http://www.w3.org/1999/xlink">
 <defs>
  <style type="text/css">
   <![CDATA[
    .fil2 {fill:none}
    .fil0 {fill:#127B3A}
    .fil3 {fill:#1967A4}
    .fil1 {fill:#EBDB10}
   ]]>
  </style>
    <clipPath id="id0">
     <path d="M904 0l-768 0c-12,0 -24,-1 -31,7l-101 101c-4,4 -4,10 -4,16l0 283c0,8 6,14 14,14l769 0c15,0 25,-10 37,-21l97 -97c4,-4 4,-7 4,-14 -2,-90 -1,-180 0,-270 0,-8 -3,-19 -15,-19z"/>
    </clipPath>
 </defs>
 <g id="Camada_x0020_1">
  <metadata id="CorelCorpID_0Corel-Layer"/>
  <g id="_635470784">
   <path class="fil0" d="M904 0l-768 0c-12,0 -24,-1 -31,7l-101 101c-4,4 -4,10 -4,16l0 283c0,8 6,14 14,14l769 0c15,0 25,-10 37,-21l97 -97c4,-4 4,-7 4,-14 -2,-90 -1,-180 0,-270 0,-8 -3,-19 -15,-19z"/>
   <g style="clip-path:url(#id0)">
    <g>
     <path id="1" class="fil1" d="M447 -2l-64 3 32 32c8,8 5,19 -1,26l-367 365 69 0 167 -167c10,-10 22,-9 31,0l169 169 66 0 -44 -44c-2,-2 -5,-20 1,-26l361 -361 -65 0c-55,54 -109,109 -164,163 -9,9 -21,11 -31,0l-160 -160z"/>
    </g>
   </g>
   <path class="fil2" d="M904 0l-768 0c-12,0 -24,-1 -31,7l-101 101c-4,4 -4,10 -4,16l0 283c0,8 6,14 14,14l769 0c15,0 25,-10 37,-21l97 -97c4,-4 4,-7 4,-14 -2,-90 -1,-180 0,-270 0,-8 -3,-19 -15,-19z"/>
   <circle class="fil3" cx="460" cy="205" r="92"/>
   <polygon class="fil3" points="0,445 0,578 36,578 36,445 "/>
   <polygon class="fil3" points="61,579 61,445 103,445 145,535 145,444 175,444 175,579 140,579 91,487 91,579 "/>
   <path class="fil3" d="M386 449c-16,-6 -51,-5 -80,-1l0 131 36 0 0 -50c28,-5 28,21 35,50l37 0c-9,-28 -14,-57 -27,-62 28,-20 29,-56 0,-67zm-14 37c0,-15 -12,-17 -30,-15l0 32c20,1 31,-4 30,-18z"/>
   <path class="fil3" d="M752 449c-16,-6 -51,-5 -80,-1l0 131 36 0 0 -50c28,-5 28,21 35,50l37 0c-9,-28 -14,-57 -27,-62 28,-20 29,-56 0,-67zm-14 37c0,-15 -12,-17 -30,-15l0 32c20,1 31,-4 30,-18z"/>
   <path class="fil3" d="M422 579l38 -135 49 0 39 135 -37 0 -10 -32 -33 0 -7 32 -38 0zm61 -108l-13 50 27 0 -14 -50z"/>
   <polygon class="fil3" points="652,473 651,444 566,444 566,579 654,579 654,548 602,548 601,524 648,524 648,495 601,495 601,473 "/>
   <path class="fil3" d="M855 442c36,0 65,31 65,69 0,38 -29,69 -65,69 -36,0 -65,-31 -65,-69 0,-38 29,-69 65,-69zm0 27c15,0 28,18 28,41 0,23 -13,41 -28,41 -15,0 -28,-18 -28,-41 0,-23 13,-41 28,-41z"/>
   <polygon class="fil3" points="235,579 198,579 198,444 286,444 286,474 236,474 236,499 282,499 282,527 235,527 "/>
  </g>
 </g>
</svg>
